<svg data-v-0dd9719b="" version="1.0" xmlns="http://www.w3.org/2000/svg" xmlns:xlink="http://www.w3.org/1999/xlink" width="100%" height="100%" viewBox="0 0 340.000000 250.000000" preserveAspectRatio="xMidYMid meet" color-interpolation-filters="sRGB" style="margin: auto;"> <rect data-v-0dd9719b="" x="0" y="0" width="100%" height="100%" fill="#ffffff" fill-opacity="1" class="background"></rect> <rect data-v-0dd9719b="" x="0" y="0" width="100%" height="100%" fill="url(#watermark)" fill-opacity="1" class="watermarklayer"></rect> <g data-v-0dd9719b="" class="iconmbgsvg" transform="translate(81.4000015258789,68.78766632080078)"><g fill="#000000" hollow-target="textNormalTran"><g opacity="0.55" transform="translate(32.349998474121094,0)"><g><rect fill="#000000" fill-opacity="0" stroke-width="2" x="0" y="0" width="112.5" height="112.42467546743683" class="image-rect"></rect> <svg x="0" y="0" width="112.5" height="112.42467546743683" filtersec="colorsb163469629" class="image-svg-svg primary" style="overflow: visible;"><svg version="1.1" id="cube" xmlns="http://www.w3.org/2000/svg" xmlns:xlink="http://www.w3.org/1999/xlink" x="0px" y="0px" viewBox="3.8899998664855957 6.92999267578125 550.0107421875 549.6400146484375" enable-background="new 0 0 559.47 563.5" xml:space="preserve">
<g>
	<path fill="#009FE8" d="M500.4,6.93c0,0,2.83,29.67-39.12,46.93c-16.38,6.76-36.32,6.77-59.55,4.89
		c-48.82-1.04-91.4,0.24-135.73,14.33c-92.79,29.5-131.08,161.09-131.08,161.09s32.6-54.18,94.38-71.24
		c66.02-18.22,129.36-6.58,208-17.48C515.92,134.55,500.4,6.93,500.4,6.93z"></path>
	<path fill="#8DC21F" d="M527.99,111.76c0,0,3.75,36.89-48.79,58.1c-20.52,8.31-45.52,8.2-74.7,5.71
		c-61.28-1.56-114.67-0.22-170.21,17.02C118.01,228.69,70.77,391.99,70.77,391.99s40.58-67.12,118-87.97
		c82.76-22.25,162.27-7.4,260.88-20.49C548.22,270.46,527.99,111.76,527.99,111.76z"></path>
	<path fill="#F29600" d="M550.81,245.19c0,0,5.57,42.74-57.59,65.84c-24.68,9-55.05,8.21-90.47,4.51
		c-74.39-3.5-139.1-3.45-206.02,14.94C56.68,369,3.89,556.57,3.89,556.57s47.34-76.53,140.72-98.47
		c99.75-23.41,196.66-4.06,315.91-16.45C579.75,429.26,550.81,245.19,550.81,245.19z"></path>
</g>
</svg></svg> <!----></g></g> <g transform="translate(0,45.59733295440674)"><g data-gra="path-name" fill-rule="" class="tp-name"><g transform="scale(1)"><g><path d="M10.71 0.27C12.97 0.27 15.61-0.16 17.02-0.59L17.02-11.27 9.43-11.27 9.43-6.85 12.15-6.85 12.15-4.16C11.75-4.13 11.69-4.13 10.98-4.13 7.67-4.13 7.14-5.38 7.14-9.24 7.14-12.95 8.12-14.28 11.22-14.28 12.63-14.28 14.33-14.04 15.82-13.53L15.82-18.14C14.73-18.49 12.55-18.75 10.76-18.75 4.93-18.75 1.28-16.38 1.28-9.24 1.28-1.49 4.77 0.27 10.71 0.27ZM29.14-14.65C27.44-14.65 26.13-14.17 25.28-11.88L25.28-14.39 20.22-14.39 20.22 0 25.28 0 25.28-7.51C25.49-9.51 27.25-10.15 28.93-10.15L29.33-10.15 29.44-14.65ZM44.7-8.12C44.7-12.52 43.32-14.65 38.2-14.65 33.43-14.65 30.66-13.11 30.66-7.19 30.66-1.28 33.43 0.27 37.96 0.27 40.81 0.27 43.1-0.27 43.98-0.88L43.98-4.61C43.13-4.1 40.92-3.57 38.97-3.57 37.13-3.57 35.99-4.08 35.7-5.33L44.54-5.86C44.62-6.07 44.7-6.95 44.7-8.12ZM35.67-8.76C35.78-10.55 36.52-10.95 38.23-10.95 39.83-10.95 40.22-10.2 40.22-9.11ZM60.47-8.12C60.47-12.52 59.09-14.65 53.97-14.65 49.2-14.65 46.43-13.11 46.43-7.19 46.43-1.28 49.2 0.27 53.73 0.27 56.58 0.27 58.87-0.27 59.75-0.88L59.75-4.61C58.9-4.1 56.69-3.57 54.74-3.57 52.91-3.57 51.76-4.08 51.47-5.33L60.31-5.86C60.39-6.07 60.47-6.95 60.47-8.12ZM51.44-8.76C51.55-10.55 52.29-10.95 54-10.95 55.6-10.95 56-10.2 56-9.11ZM72.38-14.65C70.03-14.65 68.65-13.91 67.93-12.92L67.93-14.39 62.87-14.39 62.87 0 67.93 0 67.93-9.48C68.14-10.2 68.7-10.66 69.98-10.66 71.58-10.66 72.03-10.36 72.03-8.58L72.03 0 77.09 0 77.09-9.72C77.09-13.21 75.76-14.65 72.38-14.65ZM86.87 0.27C91.45 0.27 94.22-1.28 94.22-7.19 94.22-13.11 91.45-14.65 86.87-14.65 82.29-14.65 79.52-13.11 79.52-7.19 79.52-1.28 82.29 0.27 86.87 0.27ZM86.87-3.41C85.17-3.41 84.63-4.26 84.63-7.19 84.63-10.12 85.17-11.03 86.87-11.03 88.57-11.03 89.11-10.12 89.11-7.19 89.11-4.26 88.57-3.41 86.87-3.41ZM100.22 0L106.45 0 111.62-14.39 106.16-14.39 103.47-5.35 103.31-5.35 100.94-14.39 95.15-14.39ZM119.48-14.62C118.44-14.62 116.89-14.57 115.8-14.39L115.8-10.15C116.73-10.31 117.72-10.39 118.76-10.39 120.86-10.39 121.39-10.18 121.47-8.71L118.52-8.71C114.33-8.71 112.44-7.49 112.44-4.18 112.44-1.09 114.33 0.27 117.34 0.27 119.88 0.27 121.1-0.61 121.53-1.33L121.93 0 126.51 0 126.51-9.78C126.51-13.13 124.51-14.62 119.48-14.62ZM118.94-3.49C117.9-3.49 117.34-3.68 117.34-4.42 117.34-5.27 117.85-5.51 119.45-5.51L121.47-5.51 121.47-4.4C121.07-3.89 120.2-3.49 118.94-3.49ZM137.86-10.5L137.86-14.39 135.3-14.39 135.3-17.79 130.24-17.79 130.24-14.39 128.53-14.39 128.53-10.5 130.24-10.5 130.24-4.74C130.24-0.99 131.57 0.16 135.41 0.16 136.05 0.16 136.9 0.11 137.46 0.03L137.46-3.76C137.22-3.68 136.92-3.7 136.63-3.7 135.59-3.7 135.3-3.97 135.3-5.22L135.3-10.5ZM142.17-15.88C144.52-15.88 144.92-16.12 144.92-18.46 144.92-20.78 144.52-20.96 142.17-20.96 139.85-20.96 139.43-20.78 139.43-18.46 139.43-16.12 139.85-15.88 142.17-15.88ZM139.64 0L144.7 0 144.7-14.39 139.64-14.39ZM154.43 0.27C159.01 0.27 161.78-1.28 161.78-7.19 161.78-13.11 159.01-14.65 154.43-14.65 149.84-14.65 147.07-13.11 147.07-7.19 147.07-1.28 149.84 0.27 154.43 0.27ZM154.43-3.41C152.72-3.41 152.19-4.26 152.19-7.19 152.19-10.12 152.72-11.03 154.43-11.03 156.13-11.03 156.66-10.12 156.66-7.19 156.66-4.26 156.13-3.41 154.43-3.41ZM173.77-14.65C171.42-14.65 170.04-13.91 169.32-12.92L169.32-14.39 164.26-14.39 164.26 0 169.32 0 169.32-9.48C169.53-10.2 170.09-10.66 171.37-10.66 172.97-10.66 173.42-10.36 173.42-8.58L173.42 0 178.48 0 178.48-9.72C178.48-13.21 177.15-14.65 173.77-14.65Z" transform="translate(-1.2799999713897705, 20.959999084472656)"></path></g> <!----> <!----> <!----> <!----> <!----> <!----> <!----></g></g> <!----></g></g></g><defs v-gra="od"></defs></svg>